<mxfile host="app.diagrams.net" modified="2023-09-28T18:48:59.844Z" agent="Mozilla/5.0 (X11; Linux x86_64; rv:109.0) Gecko/20100101 Firefox/114.0" etag="x6IniAiSQS0kx_amI0Ds" version="21.8.2" type="github">
  <diagram name="PÃ¡gina-1" id="DXjCByTwYUVbcFyYAlgy">
    <mxGraphModel dx="678" dy="837" grid="1" gridSize="10" guides="1" tooltips="1" connect="1" arrows="1" fold="1" page="1" pageScale="1" pageWidth="827" pageHeight="1169" math="0" shadow="0">
      <root>
        <mxCell id="0" />
        <mxCell id="1" parent="0" />
        <mxCell id="Dcv7L6V4iFthiTcu74ha-1" value="Paquete" style="rounded=0;whiteSpace=wrap;html=1;" vertex="1" parent="1">
          <mxGeometry x="320" y="210" width="120" height="60" as="geometry" />
        </mxCell>
        <mxCell id="Dcv7L6V4iFthiTcu74ha-2" value="Camionero" style="rounded=0;whiteSpace=wrap;html=1;" vertex="1" parent="1">
          <mxGeometry x="320" y="480" width="120" height="60" as="geometry" />
        </mxCell>
        <mxCell id="Dcv7L6V4iFthiTcu74ha-3" value="&lt;div&gt;Camion&lt;/div&gt;" style="rounded=0;whiteSpace=wrap;html=1;" vertex="1" parent="1">
          <mxGeometry x="320" y="740" width="120" height="60" as="geometry" />
        </mxCell>
        <mxCell id="Dcv7L6V4iFthiTcu74ha-4" value="lleva" style="rhombus;whiteSpace=wrap;html=1;" vertex="1" parent="1">
          <mxGeometry x="340" y="350" width="80" height="80" as="geometry" />
        </mxCell>
        <mxCell id="Dcv7L6V4iFthiTcu74ha-5" value="conduce" style="rhombus;whiteSpace=wrap;html=1;" vertex="1" parent="1">
          <mxGeometry x="340" y="610" width="80" height="80" as="geometry" />
        </mxCell>
        <mxCell id="Dcv7L6V4iFthiTcu74ha-7" value="Codigo" style="ellipse;whiteSpace=wrap;html=1;align=center;fontStyle=4;" vertex="1" parent="1">
          <mxGeometry x="480" y="260" width="100" height="40" as="geometry" />
        </mxCell>
        <mxCell id="Dcv7L6V4iFthiTcu74ha-8" value="Decripcion" style="ellipse;whiteSpace=wrap;html=1;" vertex="1" parent="1">
          <mxGeometry x="480" y="210" width="100" height="40" as="geometry" />
        </mxCell>
        <mxCell id="Dcv7L6V4iFthiTcu74ha-9" value="Detinatario" style="ellipse;whiteSpace=wrap;html=1;" vertex="1" parent="1">
          <mxGeometry x="480" y="150" width="100" height="40" as="geometry" />
        </mxCell>
        <mxCell id="Dcv7L6V4iFthiTcu74ha-10" value="Direccion" style="ellipse;whiteSpace=wrap;html=1;" vertex="1" parent="1">
          <mxGeometry x="480" y="100" width="100" height="40" as="geometry" />
        </mxCell>
      </root>
    </mxGraphModel>
  </diagram>
</mxfile>
